<svg id="Layer_1" data-name="Layer 1" xmlns="http://www.w3.org/2000/svg" viewBox="0 0 271.06 73.59"><defs><style>.cls-1{fill:#010101;}.cls-2{fill:#7b2430;}.cls-3{fill:#020202;}</style></defs><title>logoNoCaption</title><path class="cls-1" d="M138.14,41.49l25,30.61H151.35c-.56,0-.75-.37-1-.7L129.26,44.83a1.86,1.86,0,0,0-1.68-.84c-2.88,0-5.76.06-8.64,0-.87,0-1,.25-1,1.06V71c0,1-.27,1.17-1.18,1.15-2.44-.06-4.88,0-7.32,0-.69,0-1-.11-1-.89V2.48c0-.67.07-1,.88-1,7.16,0,14.32,0,21.47.09,4.66.08,9.21.74,13.3,3.3,6.38,4,8.88,9.86,8.48,17.19-.51,9.3-5.39,15.41-13.78,19l-.54.24A.75.75,0,0,1,138.14,41.49ZM117.91,22.66V34.9c0,.5-.16,1,.72,1,3.91-.09,7.83.12,11.74-.27,3.73-.37,7.1-1.45,9.53-4.56a15.27,15.27,0,0,0,2.87-8.6c.52-6.64-3.1-11.29-9.67-12.29-4.85-.74-9.73-.35-14.6-.47-.75,0-.59.45-.59.86q0,6,0,12.1Z" transform="translate(-0.03 -0.02)"/><path class="cls-2" d="M212.12,52.06v14.4a1.23,1.23,0,0,1-.79,1.38,61.9,61.9,0,0,1-16.72,5.3c-8.12,1.11-16,.36-23.43-3.54a27.67,27.67,0,0,1-13.75-17.09c-3.45-11.3-3.56-22.64,1.07-33.66C162.91,8.35,171.1,2.42,182.26.6,191.8-1,200.82.94,209.51,5c1.73.8,2.48,1.63,2.32,3.58-.2,2.54,0,5.12-.06,7.68,0,.38.29.92-.28,1.14s-.81-.17-1.15-.46A34.4,34.4,0,0,0,195,9.14c-5.51-1.24-11-1.42-16.32,1A21.58,21.58,0,0,0,167,23.56a40.17,40.17,0,0,0,.65,28.15c3.43,8.69,11,13.66,20.36,13.65a45,45,0,0,0,13.61-1.8A1.39,1.39,0,0,0,202.75,62h0c0-5.24-.06-10.48,0-15.72,0-1.12-.35-1.28-1.34-1.27-4.6,0-9.2,0-13.8,0-.84,0-1.18-.13-1.15-1.08.08-2.16,0-4.32,0-6.48,0-.67.18-.87.86-.87H211.2c.81,0,.9.31.89,1Q212.12,44.79,212.12,52.06Z" transform="translate(-0.03 -0.02)"/><path d="M0,36.82V2.75c0-1,.24-1.23,1.23-1.23q20.82.06,41.63,0c1,0,1.32.15,1.27,1.21-.09,2-.07,4.08,0,6.12,0,.89-.19,1.13-1.11,1.12q-16.2,0-32.39,0c-1,0-1.23.24-1.22,1.23q.08,8.46,0,16.92c0,.91.22,1.1,1.11,1.1H40.67c.92,0,1.22.2,1.18,1.17-.08,2.08-.07,4.16,0,6.24,0,.87-.25,1-1.07,1H10.66c-1,0-1.23.24-1.22,1.23q.07,11.94,0,23.88c0,.9.22,1.1,1.11,1.1H42.94c1,0,1.27.27,1.23,1.25-.08,2.08,0,4.16,0,6.24,0,.7-.12,1-.9,1H.92c-1,0-.84-.54-.84-1.12Q0,53.9,0,36.82Z" transform="translate(-0.03 -0.02)"/><path class="cls-3" d="M50.95,62.12v-5c0-.27-.23-.67.24-.8a.92.92,0,0,1,.87.28c.63.55,1.25,1.13,1.91,1.63,6.09,4.63,12.87,7.31,20.62,7.13a17.85,17.85,0,0,0,9.5-2.45c4-2.59,5.47-6.4,5-11-.45-4.35-2.94-7.12-7-8.57S73.7,41.08,69.49,40a39.74,39.74,0,0,1-7.91-2.69C54.16,33.66,51,26.91,51.51,19,52.09,9.38,59.93,2.59,68.22.91,77.67-1,86.79.51,95.56,4.36a1.08,1.08,0,0,1,.71,1.19V15c0,.31.25.76-.23.93s-.74-.12-1.06-.39A31.18,31.18,0,0,0,83.43,9.38c-4.9-1.4-9.87-1.73-14.71.12-7.75,3-8.64,9.61-6.45,14.83,1.33,3.18,4.09,4.86,7.26,5.76,4.6,1.3,9.26,2.4,13.89,3.61a24.55,24.55,0,0,1,9.47,4.41c4.51,3.66,6.21,8.6,6.07,14.22-.3,12.5-9.59,19.31-18.41,20.7a47.85,47.85,0,0,1-28.86-4.59,1.18,1.18,0,0,1-.76-1.29C51,65.48,50.95,63.8,50.95,62.12Z" transform="translate(-0.03 -0.02)"/><path class="cls-3" d="M271,61.9v4.8a.94.94,0,0,1-.55,1c-4.86,2.45-9.85,4.64-15.27,5.37-9.36,1.25-18.26.07-25.93-6.07a29,29,0,0,1-9.73-15.1c-2.93-10.35-3.11-20.79.4-31S230.46,3.46,241.36,1C250-1,258.49.21,266.6,3.84c1.24.55,2.42,1.22,3.65,1.78A1.18,1.18,0,0,1,271,6.89v9.6c0,.29.19.7-.16.86a1,1,0,0,1-1.07-.3,43.35,43.35,0,0,0-5.57-4.33c-5.69-3.54-11.85-5.25-18.51-4.09-8,1.39-13.09,6.36-16,13.78-2.37,6.13-2.76,12.51-2.26,19a30.09,30.09,0,0,0,5,15c4.54,6.62,10.92,9.41,18.85,8.85,7.12-.51,13.07-3.58,18.25-8.34a4.49,4.49,0,0,0,.42-.42.74.74,0,0,1,.87-.21c.35.12.18.48.18.72C271,58.66,271,60.3,271,61.9Z" transform="translate(-0.03 -0.02)"/></svg>